<?xml version="1.0" encoding="utf-8"?>
<!-- Generator: Adobe Illustrator 21.1.0, SVG Export Plug-In . SVG Version: 6.00 Build 0)  -->
<svg version="1.1" id="Layer_1" xmlns="http://www.w3.org/2000/svg" xmlns:xlink="http://www.w3.org/1999/xlink" x="0px" y="0px"
	 width="400px" height="400px" viewBox="0 0 400 400" style="enable-background:new 0 0 400 400;" xml:space="preserve">
<style type="text/css">
	.st0{fill:#0751A0;}
	.st1{fill:#FFFFFF;}
	.st2{fill:#B0D237;}
</style>
<circle class="st0" cx="200" cy="200" r="191.1"/>
<path class="st1" d="M280.8,180.2h-7.6c-0.5,0-0.8,0.4-0.8,0.8c0,0,0,0,0,0v34.4c0,0.5,0.4,0.8,0.8,0.8l0,0h7.6
	c0.5,0,0.8-0.4,0.8-0.8l0,0V181C281.6,180.6,281.2,180.2,280.8,180.2z M340.2,211.4h-1.4c-0.3,0-0.5-0.2-0.5-0.5s0.2-0.5,0.5-0.5
	h3.9c0.3,0,0.5,0.2,0.5,0.5s-0.2,0.5-0.5,0.5h-1.4v4.4c0,0.3-0.2,0.5-0.5,0.5c-0.3,0-0.5-0.2-0.5-0.5L340.2,211.4z M344.2,210.9
	c0-0.3,0.2-0.5,0.5-0.5l0,0h0.1c0.2,0,0.4,0.1,0.5,0.3l1.8,2.8l1.8-2.8c0.1-0.2,0.3-0.3,0.5-0.3h0.1c0.3,0,0.5,0.2,0.5,0.5
	c0,0,0,0,0,0v4.9c0,0.3-0.2,0.5-0.5,0.5l0,0c-0.3,0-0.5-0.2-0.5-0.5c0,0,0,0,0,0v-3.5l-1.4,2.2c-0.1,0.2-0.4,0.3-0.6,0.2
	c-0.1,0-0.2-0.1-0.2-0.2l-1.4-2.1v3.5c0,0.3-0.2,0.5-0.5,0.5c0,0,0,0,0,0c-0.3,0-0.5-0.2-0.5-0.5L344.2,210.9z M136.1,180.2h-6.4
	c-0.7,0-1.3,0.7-1.3,1.4V205c0,2.5-3.5,3.3-7.7,3.3h-9.6c-4.3,0-7.7-0.8-7.7-3.3v-23.4c0-0.8-0.6-1.4-1.4-1.4c0,0,0,0,0,0h-6.5
	c-0.8,0-1.4,0.6-1.4,1.4c0,0,0,0,0,0v23.9c-0.1,3.7,1.9,7.2,5.3,8.8c3.4,2.1,11.6,1.9,13.9,1.9h5.2c2.4,0,10.4,0,13.9-1.9
	c3.3-1.6,5.4-5.1,5.3-8.8v-23.9C137.5,180.9,136.9,180.2,136.1,180.2C136.1,180.2,136.1,180.2,136.1,180.2z M324.7,180.5
	c0.2-0.2,0.4-0.2,0.6-0.3h10.5c0.5,0,0.9,0.4,0.9,0.8c0,0.3-0.1,0.5-0.3,0.7l-15.4,13.4c-0.3,0.3-0.9,0.4-1.2,0c0,0,0,0,0,0
	l-5.3-4.5c-0.3-0.3-0.3-0.9,0-1.2c0,0,0,0,0,0L324.7,180.5z M324.7,216.1c0.2,0.2,0.4,0.2,0.6,0.3h10.5c0.5,0,0.9-0.4,0.9-0.8
	c0-0.3-0.1-0.5-0.3-0.7l-15.4-13.4c-0.3-0.3-0.9-0.4-1.2,0c0,0,0,0,0,0l-5.3,4.5c-0.3,0.3-0.3,0.9,0,1.2c0,0,0,0,0,0L324.7,216.1z"
	/>
<path class="st2" d="M296.6,216.1c-0.2,0.1-0.4,0.2-0.6,0.2h-10.5c-0.5,0-0.8-0.4-0.8-0.8c0,0,0,0,0,0c0-0.2,0.1-0.4,0.3-0.6
	l18.5-16c0.4-0.3,0.4-0.8,0.1-1.2c0,0,0-0.1-0.1-0.1l-18.4-15.9c-0.2-0.2-0.3-0.4-0.3-0.6c0-0.5,0.4-0.8,0.8-0.8l0,0H296
	c0.2,0,0.4,0.1,0.6,0.2l19.9,17.2c0.4,0.3,0.4,0.8,0.1,1.2c0,0,0,0.1-0.1,0.1L296.6,216.1z"/>
<path class="st1" d="M165,189.1c0-0.5,0.4-0.8,0.8-0.8h13.1c0.8,0.1,1.4-0.5,1.5-1.3c0,0,0-0.1,0-0.1v-5.3c0-0.8-0.6-1.4-1.4-1.4
	c0,0,0,0,0,0h-37.1c-0.8,0-1.4,0.6-1.4,1.4c0,0,0,0,0,0v5.3c0,0.8,0.6,1.4,1.4,1.4c0,0,0,0,0,0H155c0.5,0,0.8,0.4,0.8,0.8v25.8
	c0,0.8,0.6,1.4,1.4,1.4c0,0,0,0,0,0h6.4c0.8,0,1.4-0.6,1.4-1.4c0,0,0,0,0,0L165,189.1z M80.9,202.6c0.1,0.1,0.3,0.2,0.4,0.2
	c0.3,0,0.6-0.2,0.6-0.6c0,0,0,0,0,0v-20.6c0-0.8,0.6-1.4,1.4-1.4c0,0,0,0,0,0h6.4c0.8,0,1.4,0.6,1.4,1.4c0,0,0,0,0,0v29.8
	c0,3-1.2,4.4-2.4,4.9c-2.4,0.6-4.9,0-6.9-1.5l-23-19.9l-1.3-1.1c-0.2-0.2-0.6-0.1-0.7,0.1c-0.1,0.1-0.1,0.2-0.1,0.3v20.7
	c0,0.8-0.6,1.4-1.4,1.4c0,0,0,0,0,0h-6.4c-0.8,0-1.4-0.6-1.4-1.4c0,0,0,0,0,0v-29.8c0-3,1.2-4.4,2.4-4.9c2.4-0.6,4.9,0,6.9,1.5
	l23,19.9L80.9,202.6z M259.2,202.6c0.1,0.1,0.3,0.2,0.4,0.2c0.3,0,0.6-0.2,0.6-0.6c0,0,0,0,0,0v-20.6c0-0.8,0.6-1.4,1.4-1.4
	c0,0,0,0,0,0h6.4c0.8,0,1.4,0.6,1.4,1.4c0,0,0,0,0,0v29.8c0,3-1.2,4.4-2.4,4.9c-2.4,0.6-4.9,0-6.9-1.5l-23-19.9l-1.3-1.1
	c-0.2-0.2-0.6-0.1-0.7,0.1c-0.1,0.1-0.1,0.2-0.1,0.3v20.7c0,0.8-0.6,1.4-1.4,1.4c0,0,0,0,0,0h-6.4c-0.8,0-1.4-0.6-1.4-1.4
	c0,0,0,0,0,0v-29.8c0-3,1.2-4.4,2.4-4.9c2.4-0.6,4.9,0,6.9,1.5l23,19.9L259.2,202.6z M272.4,181.6c0-0.8,0.6-1.4,1.4-1.4
	c0,0,0,0,0,0h6.4c0.8,0,1.4,0.6,1.4,1.4c0,0,0,0,0,0v33.3c0,0.8-0.6,1.4-1.4,1.4c0,0,0,0,0,0h-6.4c-0.8,0-1.4-0.6-1.4-1.4
	c0,0,0,0,0,0V181.6z M222.6,214.9l-22.7-32.6c-1-1.5-2.7-2.4-4.5-2.4c-1.8,0-3.5,0.9-4.5,2.3l-22.7,32.6c-0.1,0.2-0.2,0.3-0.2,0.5
	c0,0.5,0.4,0.8,0.8,0.8h8.3c0.3,0,0.6-0.2,0.7-0.4l5.9-8.4c0.1-0.3,0.4-0.5,0.8-0.5h21.7c0.3,0,0.6,0.2,0.8,0.5l5.9,8.4
	c0.2,0.3,0.4,0.4,0.7,0.4h8.3c0.5,0,0.8-0.4,0.8-0.8c0,0,0,0,0,0C222.8,215.3,222.7,215.1,222.6,214.9z M200.1,199h-9.4
	c-0.3,0-0.5-0.2-0.5-0.5c0,0,0,0,0,0c0-0.1,0.1-0.3,0.2-0.4l4.6-6.6l0.1-0.1h0.4l0.3,0.1l4.6,6.6c0.2,0.2,0.2,0.5,0,0.7
	C200.4,199,200.2,199,200.1,199L200.1,199z"/>
</svg>
